<svg xmlns="http://www.w3.org/2000/svg"  viewBox="0 0 64 64" width="32px" height="32px"><path d="M 13 6 C 9.1 6 6 9.1 6 13 L 6 51 C 6 54.9 9.1 58 13 58 L 51 58 C 54.9 58 58 54.9 58 51 L 58 13 C 58 9.1 54.9 6 51 6 L 13 6 z M 13 8 L 51 8 C 53.8 8 56 10.2 56 13 L 56 51 C 56 53.8 53.8 56 51 56 L 13 56 C 10.2 56 8 53.8 8 51 L 8 13 C 8 10.2 10.2 8 13 8 z M 45.669922 12.841797 C 43.861798 12.801546 42.23241 13.612904 41.128906 14.847656 C 40.346056 14.02779 39.36988 13.376171 38.193359 13.048828 C 37.652415 12.874536 37.194176 12.900391 36.800781 12.900391 C 36.516667 12.900391 36.105729 12.905391 35.648438 13.042969 C 33.370658 13.446205 31.605204 15.213107 31.123047 17.382812 L 31.119141 17.404297 L 31.115234 17.425781 C 30.756917 19.456246 31.478694 21.392756 32.792969 22.707031 L 32.990234 22.904297 L 39.291016 29.304688 L 39.292969 29.306641 C 40.246522 30.260194 41.853087 30.260194 42.806641 29.306641 L 49.40625 22.707031 C 50.463385 21.649896 51.199219 20.207302 51.199219 18.599609 C 51.199219 18.077387 51.099609 17.866667 51.099609 17.5 L 51.099609 17.390625 L 51.076172 17.283203 C 50.586848 15.081244 48.782219 13.279553 46.455078 12.912109 C 46.190507 12.870335 45.928225 12.847547 45.669922 12.841797 z M 45.574219 14.839844 C 45.762149 14.842842 45.95286 14.858408 46.144531 14.888672 C 47.614375 15.120752 48.805485 16.314625 49.119141 17.708984 C 49.144081 18.144697 49.199219 18.536617 49.199219 18.599609 C 49.199219 19.591917 48.735052 20.550104 47.992188 21.292969 L 41.392578 27.892578 C 41.146132 28.139025 40.953478 28.139025 40.707031 27.892578 L 34.410156 21.496094 L 34.207031 21.292969 C 33.3271 20.413038 32.855181 19.158019 33.085938 17.798828 C 33.40345 16.409274 34.59073 15.219741 36.056641 14.988281 L 36.138672 14.974609 L 36.216797 14.949219 C 36.32706 14.912469 36.500781 14.900391 36.800781 14.900391 C 37.200781 14.900391 37.536967 14.933539 37.583984 14.949219 L 37.609375 14.957031 L 37.636719 14.964844 C 38.543766 15.21222 39.264206 15.692574 39.847656 16.359375 L 39.767578 16.253906 C 40.080924 16.723926 40.608333 16.925781 41.0625 16.925781 C 41.516667 16.925781 41.960222 16.752669 42.306641 16.40625 L 42.353516 16.361328 L 42.392578 16.310547 C 43.063964 15.437746 44.258705 14.818858 45.574219 14.839844 z M 40.986328 14.955078 C 40.938408 15.012338 40.852112 15.030728 40.806641 15.089844 L 40.892578 14.992188 C 40.918228 14.966537 40.955798 14.966078 40.986328 14.955078 z M 12 48 C 11.4 48 11 48.4 11 49 L 11 51 C 11 51.6 11.4 52 12 52 C 12.6 52 13 51.6 13 51 L 13 49 C 13 48.4 12.6 48 12 48 z M 17 48 C 16.4 48 16 48.4 16 49 L 16 51 C 16 51.6 16.4 52 17 52 C 17.6 52 18 51.6 18 51 L 18 49 C 18 48.4 17.6 48 17 48 z M 22 48 C 21.4 48 21 48.4 21 49 L 21 51 C 21 51.6 21.4 52 22 52 C 22.6 52 23 51.6 23 51 L 23 49 C 23 48.4 22.6 48 22 48 z M 27 48 C 26.4 48 26 48.4 26 49 L 26 51 C 26 51.6 26.4 52 27 52 C 27.6 52 28 51.6 28 51 L 28 49 C 28 48.4 27.6 48 27 48 z M 32 48 C 31.4 48 31 48.4 31 49 L 31 51 C 31 51.6 31.4 52 32 52 C 32.6 52 33 51.6 33 51 L 33 49 C 33 48.4 32.6 48 32 48 z M 37 48 C 36.4 48 36 48.4 36 49 L 36 51 C 36 51.6 36.4 52 37 52 C 37.6 52 38 51.6 38 51 L 38 49 C 38 48.4 37.6 48 37 48 z M 42 48 C 41.4 48 41 48.4 41 49 L 41 51 C 41 51.6 41.4 52 42 52 C 42.6 52 43 51.6 43 51 L 43 49 C 43 48.4 42.6 48 42 48 z M 47 48 C 46.4 48 46 48.4 46 49 L 46 51 C 46 51.6 46.4 52 47 52 C 47.6 52 48 51.6 48 51 L 48 49 C 48 48.4 47.6 48 47 48 z M 52 48 C 51.4 48 51 48.4 51 49 L 51 51 C 51 51.6 51.4 52 52 52 C 52.6 52 53 51.6 53 51 L 53 49 C 53 48.4 52.6 48 52 48 z" fill="white"/></svg>